<svg xmlns="http://www.w3.org/2000/svg" viewBox="0 0 192 192">
  <!-- 背景 -->
  <rect width="192" height="192" rx="44" fill="#D6EFEE"/>
  <!-- 水面 -->
  <rect x="0" y="110" width="192" height="82" rx="0" fill="#A8D8D6" opacity="0.45"/>
  <rect x="0" y="148" width="192" height="44" rx="0" fill="#7DBFBD" opacity="0.35"/>
  <!-- 尾びれ（ブロック） -->
  <rect x="36" y="74" width="22" height="52" rx="10" fill="#2B8C8A"/>
  <!-- 胴体（ブロック） -->
  <rect x="54" y="78" width="78" height="44" rx="14" fill="#3AADAB"/>
  <!-- 背びれ（ブロック） -->
  <rect x="72" y="60" width="36" height="22" rx="10" fill="#2B8C8A"/>
  <!-- 目（ブロック） -->
  <rect x="112" y="90" width="14" height="14" rx="4" fill="#FFFFFF"/>
  <rect x="115" y="93" width="7" height="7" rx="2" fill="#1A4A48"/>
  <!-- 口 -->
  <rect x="130" y="104" width="10" height="6" rx="3" fill="#2B8C8A"/>
  <!-- 鱗ライン -->
  <rect x="70" y="88" width="6" height="24" rx="3" fill="#2B8C8A" opacity="0.4"/>
  <rect x="84" y="88" width="6" height="24" rx="3" fill="#2B8C8A" opacity="0.4"/>
  <rect x="98" y="88" width="6" height="24" rx="3" fill="#2B8C8A" opacity="0.4"/>
  <!-- 泡 -->
  <circle cx="148" cy="54" r="7" fill="white" opacity="0.65"/>
  <circle cx="162" cy="36" r="5" fill="white" opacity="0.45"/>
  <circle cx="156" cy="70" r="4" fill="white" opacity="0.40"/>
  <!-- 砂利 -->
  <ellipse cx="50" cy="172" rx="14" ry="8" fill="#C9B07A" opacity="0.7"/>
  <ellipse cx="100" cy="176" rx="18" ry="7" fill="#C9B07A" opacity="0.7"/>
  <ellipse cx="150" cy="170" rx="12" ry="7" fill="#C9B07A" opacity="0.7"/>
</svg>
